<svg width="107" height="83" viewBox="0 0 107 83" fill="none" xmlns="http://www.w3.org/2000/svg">
<path d="M50.1182 49.369C47.29 47.4422 50.8485 42.299 51.9107 36.6431C51.9107 34.5864 47.9865 31.3015 43.2802 34.0722C38.3675 36.9645 35.5127 50.5259 32.1933 65.887C28.6783 82.1535 37.2772 88.1169 62.4664 78.0987C74.7483 73.214 121.657 54.3536 102.432 16.076C91.8765 -4.94107 61.2867 -0.341772 53.0393 2.5145C44.8735 5.34249 34.4622 10.3201 26.5503 18.9682C18.3182 27.9664 14.6668 36.5623 14.6668 44.4843C14.6668 50.5259 19.0423 55.0099 23.8948 52.904C29.6706 50.3974 29.6706 46.1554 32.1933 41.3992C34.7161 36.6431 43.081 25.6525 49.2551 23.9172C55.4947 22.1634 60.1428 25.7168 61.537 30.0873C62.6888 33.6982 60.6297 40.9922 58.8151 44.4843C56.2768 49.369 51.9107 50.5902 50.1182 49.369Z" fill="#232E30"/>
<path d="M24.4839 61.8368C25.4562 61.8536 25.8593 63.0903 25.073 63.6444L20.1158 67.1375C19.8924 67.295 19.7457 67.5375 19.7102 67.8082L18.9585 73.5521C18.8497 74.3832 17.8112 74.7004 17.2295 74.0803L13.2087 69.7943C13.0192 69.5924 12.7553 69.4752 12.4789 69.4705L6.34867 69.3644C5.37629 69.3475 4.97321 68.1108 5.75952 67.5567L10.7167 64.0636C10.9402 63.9061 11.0869 63.6636 11.1223 63.3929L11.874 57.649C11.9828 56.8179 13.0213 56.5007 13.6031 57.1208L17.6239 61.4068C17.8133 61.6087 18.0772 61.7259 18.3536 61.7307L24.4839 61.8368Z" fill="#232E30"/>
</svg>
