<svg width="156" height="46" viewBox="0 0 156 46" fill="none" xmlns="http://www.w3.org/2000/svg">
<path d="M80.9398 26.8927C80.5531 26.8927 80.1631 26.886 79.7698 26.8727C79.3764 26.866 78.9898 26.8527 78.6098 26.8327C78.2364 26.8127 77.8731 26.7894 77.5198 26.7627C77.1731 26.7294 76.8531 26.6927 76.5598 26.6527L77.5298 16.9227C77.1364 17.036 76.7664 17.1727 76.4198 17.3327C76.0731 17.486 75.7664 17.6494 75.4998 17.8227C75.7331 17.9627 75.9131 18.1527 76.0398 18.3927C76.1731 18.6327 76.2398 18.8727 76.2398 19.1127C76.2398 19.326 76.1964 19.5294 76.1098 19.7227C76.0231 19.916 75.9064 20.086 75.7598 20.2327C75.6131 20.3794 75.4398 20.496 75.2398 20.5827C75.0464 20.6627 74.8431 20.7027 74.6298 20.7027C74.3831 20.7027 74.1631 20.6527 73.9698 20.5527C73.7764 20.4527 73.6098 20.3194 73.4698 20.1527C73.3364 19.9794 73.2331 19.786 73.1598 19.5727C73.0931 19.3594 73.0598 19.136 73.0598 18.9027C73.0598 18.436 73.1831 17.9994 73.4298 17.5927C73.6831 17.186 74.0231 16.8194 74.4498 16.4927C74.8764 16.1594 75.3731 15.866 75.9398 15.6127C76.5131 15.3527 77.1164 15.136 77.7498 14.9627C78.3898 14.7827 79.0431 14.6494 79.7098 14.5627C80.3831 14.4694 81.0364 14.4227 81.6698 14.4227C82.3898 14.4227 83.0198 14.5027 83.5598 14.6627C84.0998 14.8227 84.5631 15.0394 84.9498 15.3127C85.3431 15.5794 85.6664 15.8894 85.9198 16.2427C86.1798 16.596 86.3831 16.966 86.5298 17.3527C86.6831 17.7327 86.7898 18.116 86.8498 18.5027C86.9098 18.8894 86.9398 19.2494 86.9398 19.5827C86.9398 20.0427 86.9064 20.546 86.8398 21.0927C86.7798 21.6327 86.6664 22.1727 86.4998 22.7127C86.3331 23.2527 86.1064 23.776 85.8198 24.2827C85.5398 24.7827 85.1764 25.226 84.7298 25.6127C84.2831 25.9994 83.7498 26.3094 83.1298 26.5427C82.5098 26.776 81.7798 26.8927 80.9398 26.8927ZM83.4498 19.4327C83.4498 18.986 83.3831 18.5894 83.2498 18.2427C83.1164 17.8894 82.9331 17.5927 82.6998 17.3527C82.4664 17.1127 82.1898 16.9294 81.8698 16.8027C81.5564 16.676 81.2131 16.6127 80.8398 16.6127L80.0098 24.4127C80.1698 24.466 80.3298 24.5027 80.4898 24.5227C80.6498 24.5427 80.8131 24.5527 80.9798 24.5527C81.3264 24.5527 81.6264 24.456 81.8798 24.2627C82.1398 24.0694 82.3598 23.8194 82.5398 23.5127C82.7198 23.206 82.8698 22.8627 82.9898 22.4827C83.1098 22.096 83.2031 21.716 83.2698 21.3427C83.3364 20.9627 83.3831 20.606 83.4098 20.2727C83.4364 19.9327 83.4498 19.6527 83.4498 19.4327ZM91.381 18.2127C91.9077 18.2127 92.3944 18.2427 92.841 18.3027C93.2944 18.356 93.691 18.476 94.031 18.6627C94.371 18.8427 94.6477 19.1127 94.861 19.4727C95.0744 19.826 95.2077 20.3027 95.261 20.9027C95.4277 20.916 95.621 20.9127 95.841 20.8927C96.0677 20.8727 96.2977 20.846 96.531 20.8127C96.7644 20.7727 96.9844 20.7294 97.191 20.6827C97.4044 20.636 97.5777 20.5894 97.711 20.5427L97.411 22.4127C97.0377 22.5594 96.6644 22.666 96.291 22.7327C95.9177 22.7994 95.561 22.8394 95.221 22.8527C95.1877 23.1527 95.131 23.466 95.051 23.7927C94.9777 24.1127 94.8677 24.426 94.721 24.7327C94.581 25.0327 94.3977 25.3194 94.171 25.5927C93.951 25.866 93.6777 26.106 93.351 26.3127C93.0244 26.5194 92.6344 26.6827 92.181 26.8027C91.7344 26.9227 91.2177 26.9827 90.631 26.9827C90.0377 26.9827 89.5177 26.9394 89.071 26.8527C88.6244 26.7727 88.251 26.616 87.951 26.3827C87.651 26.1494 87.4244 25.8227 87.271 25.4027C87.1177 24.976 87.041 24.4227 87.041 23.7427C87.041 23.296 87.0677 22.8494 87.121 22.4027C87.1744 21.956 87.2644 21.5294 87.391 21.1227C87.5177 20.7094 87.6877 20.326 87.901 19.9727C88.121 19.6194 88.391 19.3127 88.711 19.0527C89.031 18.7927 89.411 18.5894 89.851 18.4427C90.291 18.2894 90.801 18.2127 91.381 18.2127ZM92.321 22.0627C92.0144 21.8694 91.7344 21.6594 91.481 21.4327C91.2344 21.206 91.021 20.9727 90.841 20.7327C90.6877 20.8927 90.5577 21.0894 90.451 21.3227C90.3444 21.5494 90.2544 21.7894 90.181 22.0427C90.1144 22.2894 90.0644 22.5327 90.031 22.7727C89.9977 23.006 89.981 23.206 89.981 23.3727C89.981 23.446 89.981 23.556 89.981 23.7027C89.9877 23.8427 90.0144 23.9894 90.061 24.1427C90.1077 24.2894 90.1844 24.4194 90.291 24.5327C90.3977 24.6394 90.551 24.6927 90.751 24.6927C91.051 24.6927 91.301 24.6027 91.501 24.4227C91.701 24.236 91.8577 24.0094 91.971 23.7427C92.091 23.476 92.1744 23.1894 92.221 22.8827C92.2744 22.576 92.3077 22.3027 92.321 22.0627ZM100.785 21.7427C100.785 21.596 100.775 21.456 100.755 21.3227C100.742 21.1827 100.715 21.0594 100.675 20.9527C100.635 20.8394 100.579 20.7494 100.505 20.6827C100.439 20.616 100.352 20.5827 100.245 20.5827C100.079 20.5827 99.9287 20.656 99.7954 20.8027C99.6687 20.9494 99.5654 21.1294 99.4854 21.3427L98.9454 26.7827H95.8254L96.6654 18.3027L99.7954 18.1727L99.7054 19.0127C99.9921 18.746 100.295 18.556 100.615 18.4427C100.942 18.3294 101.265 18.2727 101.585 18.2727C102.379 18.2727 102.955 18.4927 103.315 18.9327C103.675 19.3727 103.855 19.976 103.855 20.7427C103.855 21.016 103.835 21.2994 103.795 21.5927C103.762 21.8794 103.722 22.1627 103.675 22.4427C103.635 22.716 103.595 22.976 103.555 23.2227C103.522 23.4627 103.505 23.6727 103.505 23.8527C103.505 24.026 103.545 24.1827 103.625 24.3227C103.705 24.456 103.852 24.5227 104.065 24.5227C104.212 24.5227 104.339 24.506 104.445 24.4727C104.552 24.4327 104.642 24.3794 104.715 24.3127C104.789 24.2394 104.852 24.1527 104.905 24.0527C104.965 23.946 105.025 23.826 105.085 23.6927C105.212 23.846 105.339 23.9994 105.465 24.1527C105.599 24.306 105.729 24.4594 105.855 24.6127C105.742 24.9394 105.582 25.246 105.375 25.5327C105.175 25.8127 104.939 26.056 104.665 26.2627C104.399 26.4694 104.109 26.6327 103.795 26.7527C103.482 26.8727 103.165 26.9327 102.845 26.9327C102.365 26.9327 101.972 26.866 101.665 26.7327C101.359 26.5994 101.115 26.426 100.935 26.2127C100.755 25.9994 100.632 25.756 100.565 25.4827C100.499 25.2094 100.465 24.9327 100.465 24.6527C100.465 24.406 100.482 24.1494 100.515 23.8827C100.549 23.616 100.585 23.356 100.625 23.1027C100.665 22.8494 100.702 22.606 100.735 22.3727C100.769 22.1394 100.785 21.9294 100.785 21.7427ZM108.412 16.1527C108.412 16.7794 108.215 17.3294 107.822 17.8027C107.435 18.276 106.918 18.6927 106.272 19.0527C106.258 19.046 106.228 19.0127 106.182 18.9527C106.142 18.886 106.095 18.816 106.042 18.7427C105.995 18.6627 105.948 18.5894 105.902 18.5227C105.862 18.4494 105.838 18.3994 105.832 18.3727C105.972 18.2794 106.088 18.1894 106.182 18.1027C106.282 18.0094 106.362 17.9227 106.422 17.8427C106.482 17.7627 106.532 17.6894 106.572 17.6227C106.612 17.5494 106.648 17.4894 106.682 17.4427C106.542 17.3827 106.402 17.316 106.262 17.2427C106.122 17.1627 105.995 17.0727 105.882 16.9727C105.768 16.866 105.675 16.7494 105.602 16.6227C105.535 16.4894 105.502 16.3394 105.502 16.1727C105.502 15.786 105.635 15.4694 105.902 15.2227C106.175 14.9694 106.538 14.8427 106.992 14.8427C107.445 14.8427 107.795 14.966 108.042 15.2127C108.288 15.4527 108.412 15.766 108.412 16.1527ZM109.662 22.6627C109.862 22.9027 110.105 23.146 110.392 23.3927C110.678 23.6327 110.985 23.8527 111.312 24.0527C111.638 24.2527 111.972 24.416 112.312 24.5427C112.658 24.6694 112.992 24.7327 113.312 24.7327C113.732 24.7327 114.072 24.6194 114.332 24.3927C114.592 24.1594 114.722 23.8327 114.722 23.4127C114.722 23.1794 114.652 22.9727 114.512 22.7927C114.378 22.606 114.198 22.436 113.972 22.2827C113.752 22.1227 113.498 21.9694 113.212 21.8227C112.932 21.6694 112.642 21.506 112.342 21.3327C112.042 21.1594 111.748 20.9727 111.462 20.7727C111.182 20.566 110.928 20.326 110.702 20.0527C110.482 19.7794 110.302 19.4694 110.162 19.1227C110.028 18.7694 109.962 18.3627 109.962 17.9027C109.962 17.4294 110.072 16.976 110.292 16.5427C110.518 16.1094 110.842 15.726 111.262 15.3927C111.688 15.0594 112.208 14.796 112.822 14.6027C113.435 14.4027 114.132 14.3027 114.912 14.3027C115.072 14.3027 115.275 14.3127 115.522 14.3327C115.775 14.346 116.042 14.376 116.322 14.4227C116.602 14.4627 116.885 14.5227 117.172 14.6027C117.458 14.676 117.725 14.7727 117.972 14.8927L117.642 18.0327C117.515 17.9194 117.325 17.7794 117.072 17.6127C116.825 17.4394 116.545 17.276 116.232 17.1227C115.925 16.9627 115.598 16.826 115.252 16.7127C114.905 16.5994 114.575 16.5427 114.262 16.5427C113.982 16.5427 113.758 16.5994 113.592 16.7127C113.432 16.826 113.352 17.0294 113.352 17.3227C113.352 17.536 113.422 17.726 113.562 17.8927C113.708 18.0594 113.898 18.216 114.132 18.3627C114.365 18.5094 114.628 18.656 114.922 18.8027C115.222 18.9427 115.525 19.0994 115.832 19.2727C116.145 19.4394 116.448 19.6294 116.742 19.8427C117.042 20.056 117.308 20.3094 117.542 20.6027C117.775 20.8894 117.962 21.226 118.102 21.6127C118.248 21.9927 118.322 22.4327 118.322 22.9327C118.322 23.646 118.185 24.2627 117.912 24.7827C117.645 25.3027 117.278 25.7327 116.812 26.0727C116.352 26.406 115.805 26.6527 115.172 26.8127C114.545 26.9794 113.872 27.0627 113.152 27.0627C112.825 27.0627 112.475 27.036 112.102 26.9827C111.728 26.9294 111.365 26.856 111.012 26.7627C110.658 26.6627 110.332 26.5427 110.032 26.4027C109.738 26.2627 109.512 26.106 109.352 25.9327L109.662 22.6627ZM123.701 18.4027L123.491 20.5527H122.291L121.951 23.8227C121.951 23.836 121.948 23.8527 121.941 23.8727C121.941 23.886 121.941 23.9027 121.941 23.9227C121.941 23.996 121.948 24.0727 121.961 24.1527C121.981 24.226 122.011 24.296 122.051 24.3627C122.098 24.4227 122.154 24.4727 122.221 24.5127C122.294 24.5527 122.384 24.5727 122.491 24.5727C122.624 24.5727 122.754 24.546 122.881 24.4927C123.014 24.4394 123.134 24.3694 123.241 24.2827C123.354 24.196 123.448 24.1027 123.521 24.0027C123.601 23.896 123.658 23.7927 123.691 23.6927L124.471 24.6127C124.371 24.8994 124.208 25.1794 123.981 25.4527C123.761 25.726 123.501 25.9694 123.201 26.1827C122.901 26.396 122.571 26.5694 122.211 26.7027C121.851 26.8294 121.488 26.8927 121.121 26.8927C120.681 26.8927 120.318 26.8194 120.031 26.6727C119.744 26.5194 119.514 26.3194 119.341 26.0727C119.174 25.826 119.054 25.5427 118.981 25.2227C118.914 24.9027 118.881 24.576 118.881 24.2427C118.881 24.076 118.888 23.926 118.901 23.7927C118.914 23.6527 118.931 23.5127 118.951 23.3727L119.751 15.5627L122.821 15.3027L122.501 18.4027H123.701ZM132.854 23.6927C132.98 23.846 133.107 23.9994 133.234 24.1527C133.367 24.306 133.497 24.4594 133.624 24.6127C133.51 24.9394 133.34 25.2427 133.114 25.5227C132.887 25.8027 132.624 26.0494 132.324 26.2627C132.03 26.4694 131.717 26.6327 131.384 26.7527C131.05 26.8727 130.72 26.9327 130.394 26.9327C129.834 26.9327 129.387 26.8127 129.054 26.5727C128.72 26.326 128.487 25.9927 128.354 25.5727C128.254 25.7794 128.134 25.956 127.994 26.1027C127.914 26.1827 127.817 26.2694 127.704 26.3627C127.59 26.456 127.454 26.546 127.294 26.6327C127.134 26.7194 126.95 26.7894 126.744 26.8427C126.537 26.9027 126.307 26.9327 126.054 26.9327C125.62 26.9327 125.254 26.8627 124.954 26.7227C124.66 26.5827 124.42 26.3894 124.234 26.1427C124.047 25.8894 123.91 25.5927 123.824 25.2527C123.744 24.906 123.704 24.5294 123.704 24.1227C123.704 23.9294 123.714 23.736 123.734 23.5427L124.284 18.1927L127.344 18.3327L126.814 23.6027C126.787 23.876 126.81 24.106 126.884 24.2927C126.964 24.4794 127.107 24.5727 127.314 24.5727C127.494 24.5727 127.644 24.506 127.764 24.3727C127.89 24.2327 127.994 24.0594 128.074 23.8527L128.654 18.1927L131.704 18.3227L131.144 23.8227C131.13 23.9094 131.13 23.996 131.144 24.0827C131.157 24.1694 131.184 24.246 131.224 24.3127C131.264 24.3794 131.32 24.4327 131.394 24.4727C131.474 24.5127 131.574 24.5327 131.694 24.5327C132.294 24.5327 132.68 24.2527 132.854 23.6927ZM142.24 23.6927C142.366 23.846 142.493 23.9994 142.62 24.1527C142.753 24.306 142.883 24.4594 143.01 24.6127C142.896 24.9394 142.726 25.2427 142.5 25.5227C142.273 25.796 142.01 26.036 141.71 26.2427C141.416 26.4427 141.103 26.5994 140.77 26.7127C140.436 26.826 140.106 26.8827 139.78 26.8827C139.233 26.8827 138.793 26.7694 138.46 26.5427C138.133 26.3094 137.896 25.9927 137.75 25.5927C137.696 25.6794 137.643 25.766 137.59 25.8527C137.543 25.9327 137.483 26.0094 137.41 26.0827C137.356 26.1427 137.276 26.2194 137.17 26.3127C137.063 26.406 136.93 26.4994 136.77 26.5927C136.61 26.686 136.42 26.766 136.2 26.8327C135.986 26.8994 135.736 26.9327 135.45 26.9327C135.003 26.9327 134.616 26.856 134.29 26.7027C133.97 26.5494 133.703 26.3394 133.49 26.0727C133.276 25.7994 133.116 25.476 133.01 25.1027C132.91 24.7294 132.86 24.326 132.86 23.8927C132.86 23.8194 132.863 23.6827 132.87 23.4827C132.876 23.2827 132.893 23.0427 132.92 22.7627C132.953 22.476 132.996 22.166 133.05 21.8327C133.11 21.4994 133.19 21.1627 133.29 20.8227C133.396 20.4827 133.526 20.156 133.68 19.8427C133.833 19.5227 134.02 19.2394 134.24 18.9927C134.466 18.746 134.726 18.5494 135.02 18.4027C135.32 18.256 135.663 18.1827 136.05 18.1827C136.39 18.1827 136.67 18.216 136.89 18.2827C137.11 18.3494 137.286 18.426 137.42 18.5127C137.56 18.5927 137.666 18.676 137.74 18.7627C137.813 18.8427 137.876 18.8994 137.93 18.9327L138.35 14.7627L141.5 14.5027C141.42 15.1894 141.34 15.9194 141.26 16.6927C141.186 17.466 141.11 18.2494 141.03 19.0427C140.95 19.8294 140.87 20.6094 140.79 21.3827C140.71 22.1494 140.633 22.876 140.56 23.5627C140.54 23.656 140.53 23.7527 140.53 23.8527C140.53 23.9394 140.536 24.026 140.55 24.1127C140.57 24.1994 140.603 24.276 140.65 24.3427C140.696 24.4094 140.756 24.466 140.83 24.5127C140.903 24.5527 140.996 24.5727 141.11 24.5727C141.243 24.5727 141.37 24.546 141.49 24.4927C141.616 24.4394 141.73 24.3694 141.83 24.2827C141.93 24.196 142.013 24.1027 142.08 24.0027C142.153 23.896 142.206 23.7927 142.24 23.6927ZM137.74 20.6727C137.713 20.6194 137.666 20.5527 137.6 20.4727C137.533 20.3927 137.426 20.3527 137.28 20.3527C137.1 20.3527 136.926 20.426 136.76 20.5727C136.6 20.7194 136.456 20.9227 136.33 21.1827C136.21 21.4427 136.113 21.756 136.04 22.1227C135.966 22.4894 135.93 22.8927 135.93 23.3327C135.93 23.6194 135.95 23.846 135.99 24.0127C136.03 24.1727 136.08 24.2927 136.14 24.3727C136.2 24.4527 136.263 24.5027 136.33 24.5227C136.396 24.536 136.456 24.5427 136.51 24.5427C136.67 24.5427 136.84 24.4927 137.02 24.3927C137.206 24.2927 137.343 24.1227 137.43 23.8827L137.74 20.6727ZM144.109 28.1127C144.189 28.186 144.296 28.2494 144.429 28.3027C144.562 28.356 144.699 28.396 144.839 28.4227C144.979 28.456 145.109 28.4794 145.229 28.4927C145.349 28.506 145.432 28.5127 145.479 28.5127C145.719 28.5127 145.906 28.4494 146.039 28.3227C146.179 28.2027 146.286 28.0394 146.359 27.8327C146.439 27.626 146.496 27.386 146.529 27.1127C146.569 26.8394 146.609 26.5527 146.649 26.2527L146.679 25.9827C146.579 26.116 146.472 26.2427 146.359 26.3627C146.252 26.476 146.119 26.576 145.959 26.6627C145.799 26.7427 145.606 26.806 145.379 26.8527C145.159 26.906 144.889 26.9327 144.569 26.9327C144.136 26.9327 143.769 26.8627 143.469 26.7227C143.176 26.5827 142.936 26.3894 142.749 26.1427C142.562 25.8894 142.426 25.5927 142.339 25.2527C142.259 24.906 142.219 24.5294 142.219 24.1227C142.219 23.9294 142.229 23.736 142.249 23.5427L142.799 18.1927L145.859 18.3327L145.349 23.3727C145.342 23.4127 145.336 23.4527 145.329 23.4927C145.329 23.526 145.329 23.5627 145.329 23.6027C145.329 23.6894 145.346 23.7894 145.379 23.9027C145.419 24.016 145.472 24.1227 145.539 24.2227C145.606 24.3227 145.682 24.406 145.769 24.4727C145.862 24.5394 145.959 24.5727 146.059 24.5727C146.206 24.5727 146.359 24.5327 146.519 24.4527C146.679 24.3727 146.796 24.2494 146.869 24.0827L147.469 18.1727L150.589 18.3227L149.809 26.0127C149.789 26.146 149.769 26.2994 149.749 26.4727C149.729 26.646 149.702 26.8294 149.669 27.0227C149.636 27.216 149.592 27.416 149.539 27.6227C149.486 27.836 149.419 28.046 149.339 28.2527C149.092 29.026 148.682 29.5994 148.109 29.9727C147.542 30.3527 146.846 30.5427 146.019 30.5427C145.519 30.5427 145.089 30.4627 144.729 30.3027C144.369 30.1494 144.019 29.9027 143.679 29.5627L144.109 28.1127Z" fill="#EBDFAF"/>
<path d="M28.4702 27.2509C26.8636 26.2179 28.885 23.4605 29.4885 20.4281C29.4885 19.3255 27.2593 17.5644 24.5858 19.0498C21.7951 20.6005 20.1734 27.8712 18.2878 36.1067C16.291 44.8276 21.1757 48.0248 35.4848 42.6537C42.4616 40.0349 69.1086 29.9233 58.1878 9.40151C52.1915 -1.86634 34.8146 0.599481 30.1296 2.13081C25.4909 3.64698 19.5767 6.31562 15.0822 10.9521C10.4059 15.7763 8.33167 20.3849 8.33167 24.6321C8.33167 27.8712 10.8172 30.2751 13.5737 29.1461C16.8547 27.8022 16.8547 25.528 18.2878 22.9781C19.7209 20.4282 24.4727 14.5358 27.9799 13.6054C31.5244 12.6652 34.1648 14.5702 34.9568 16.9134C35.6111 18.8493 34.4414 22.7598 33.4106 24.6321C31.9687 27.2509 29.4884 27.9056 28.4702 27.2509Z" fill="#EBDFAF"/>
<path d="M12.4 33.9105C13.3954 33.9267 13.8282 35.1801 13.0233 35.7154L11.5791 36.6759C11.355 36.8249 11.2074 37.0592 11.1706 37.3242L10.8861 39.3762C10.7748 40.1783 9.75939 40.471 9.16445 39.8725L7.64249 38.3414C7.44595 38.1436 7.17795 38.0292 6.90078 38.0247L5.11481 37.9955C4.11938 37.9793 3.68654 36.7259 4.49149 36.1906L5.9357 35.2301C6.15982 35.0811 6.30741 34.8468 6.34416 34.5818L6.62871 32.5298C6.73994 31.7277 7.75539 31.4349 8.35032 32.0335L9.87229 33.5646C10.0688 33.7623 10.3368 33.8768 10.614 33.8813L12.4 33.9105Z" fill="#EBDFAF"/>
</svg>
